<svg id="svg" version="1.1" xmlns="http://www.w3.org/2000/svg" xmlns:xlink="http://www.w3.org/1999/xlink" width="400" height="434.375" viewBox="0, 0, 400,434.375"><g id="svgg"><path id="path0" d="M14.410 35.667 C 10.579 36.216,9.408 37.626,8.732 42.507 L 8.345 45.294 10.107 47.947 C 11.744 50.412,14.000 55.318,14.000 56.413 C 14.000 57.278,16.928 64.194,17.421 64.493 C 19.719 65.886,23.740 72.834,24.846 77.321 C 25.897 81.583,28.115 86.011,30.523 88.653 C 32.789 91.139,34.733 94.955,36.223 99.838 C 37.836 105.125,38.398 106.211,42.005 111.000 C 45.826 116.072,46.419 117.292,48.944 125.266 C 50.682 130.755,50.981 131.370,53.591 134.816 C 56.475 138.625,57.419 140.616,58.611 145.400 C 59.789 150.129,62.012 154.243,65.422 158.000 C 66.832 159.554,68.634 163.448,69.772 167.400 C 71.087 171.970,73.063 175.995,75.368 178.800 C 77.980 181.978,80.195 186.059,80.976 189.129 C 82.215 193.996,84.708 198.608,87.604 201.387 C 89.546 203.251,91.044 206.242,92.419 211.005 C 93.997 216.471,94.736 217.930,97.578 221.200 C 100.996 225.133,102.062 227.469,104.153 235.613 C 105.391 240.433,107.566 245.035,109.978 247.939 C 112.836 251.380,113.050 251.807,115.143 258.263 C 116.939 263.806,117.295 264.540,119.680 267.638 C 123.761 272.939,124.282 273.904,125.820 279.000 C 127.541 284.699,128.986 287.400,131.353 289.340 C 133.516 291.112,136.806 297.467,137.995 302.170 C 138.874 305.643,140.915 309.200,144.007 312.647 C 146.075 314.951,148.233 319.916,149.627 325.576 C 150.627 329.636,151.137 330.674,153.670 333.797 C 155.996 336.666,158.098 340.831,159.022 344.400 C 160.902 351.663,162.817 355.920,165.679 359.200 C 166.543 360.190,167.404 361.201,167.592 361.447 C 168.462 362.588,170.041 366.167,171.025 369.231 C 172.409 373.539,173.508 375.664,175.767 378.400 C 179.979 383.500,181.289 386.036,182.823 392.052 C 183.880 396.195,184.834 397.872,188.064 401.259 C 189.459 402.721,191.515 404.912,192.633 406.127 C 196.276 410.087,198.589 410.141,205.918 406.441 C 208.541 405.117,210.597 401.648,213.410 393.800 C 215.119 389.033,216.227 387.204,218.860 384.800 C 220.942 382.899,221.846 380.999,224.390 373.173 C 225.977 368.292,226.518 367.390,230.048 363.749 C 231.889 361.850,233.200 360.159,233.200 359.683 C 233.200 355.636,238.137 344.525,240.963 342.209 C 242.988 340.550,244.240 338.224,245.598 333.600 C 248.254 324.557,249.152 322.571,252.181 319.035 L 255.065 315.668 256.759 309.734 C 257.691 306.470,258.641 303.080,258.871 302.200 C 259.593 299.437,260.762 297.626,262.743 296.203 C 265.096 294.512,266.117 292.664,268.599 285.600 C 271.171 278.278,274.198 273.200,275.991 273.200 C 276.508 273.200,277.919 270.588,278.419 268.706 C 280.962 259.136,282.861 255.057,286.458 251.434 C 288.453 249.425,289.320 248.221,289.626 247.034 C 292.713 235.047,293.537 233.376,298.681 228.679 C 299.664 227.781,300.164 226.666,301.191 223.079 C 304.877 210.200,304.984 209.934,307.702 206.951 C 309.081 205.438,310.436 203.907,310.713 203.549 C 310.990 203.191,312.297 199.711,313.617 195.817 C 316.566 187.113,317.144 185.960,319.265 184.532 C 321.913 182.750,323.360 179.847,325.195 172.636 C 326.628 167.006,328.650 163.444,331.560 161.428 C 333.333 160.199,333.637 159.544,336.203 151.400 C 338.425 144.351,339.013 143.098,341.195 140.755 C 342.093 139.790,343.416 138.370,344.133 137.600 C 345.012 136.655,345.661 135.354,346.125 133.600 C 348.429 124.900,350.596 120.810,354.410 117.962 C 356.271 116.571,357.551 113.866,358.231 109.887 C 359.733 101.093,360.937 98.165,364.385 94.931 C 367.344 92.155,367.292 92.261,370.194 83.200 C 371.980 77.620,373.574 74.522,375.643 72.609 C 377.622 70.777,378.415 69.199,381.024 61.897 C 383.607 54.667,384.512 53.075,387.519 50.470 C 390.954 47.494,391.234 46.528,390.318 40.811 C 389.913 38.287,389.397 36.037,389.171 35.811 C 388.634 35.273,18.154 35.131,14.410 35.667 M350.800 69.399 C 355.748 70.087,356.692 70.828,359.054 75.874 C 361.157 80.365,360.252 83.626,356.178 86.231 C 353.850 87.721,352.391 90.128,351.593 93.800 C 349.959 101.315,348.770 103.922,345.168 107.893 C 341.861 111.540,341.368 112.385,340.348 116.163 C 338.778 121.978,336.802 125.995,334.190 128.686 C 331.287 131.675,329.573 134.902,328.193 139.978 C 326.616 145.775,324.537 149.868,322.074 152.023 C 319.573 154.210,318.393 156.544,317.232 161.600 C 315.867 167.544,314.095 171.735,311.860 174.306 C 308.790 177.838,308.126 179.104,306.778 184.000 C 304.678 191.627,303.036 195.293,300.866 197.203 C 297.754 199.941,297.635 200.075,296.792 201.817 C 296.343 202.743,295.611 204.829,295.164 206.451 C 293.604 212.114,291.681 215.961,288.788 219.200 C 285.536 222.841,284.634 224.549,283.557 229.098 C 282.113 235.198,279.252 240.749,277.220 241.394 C 276.095 241.751,273.412 247.303,272.262 251.655 C 270.881 256.880,268.730 261.149,266.099 263.888 C 263.363 266.735,262.217 269.021,261.195 273.673 C 260.745 275.723,259.828 279.183,259.157 281.362 C 257.935 285.336,257.605 285.841,254.563 288.400 C 252.311 290.294,251.288 292.124,250.212 296.180 C 248.251 303.575,245.301 309.006,242.818 309.794 C 241.932 310.076,239.840 314.558,238.989 318.000 C 237.375 324.529,235.450 328.561,232.305 332.000 C 229.595 334.963,228.635 336.861,227.554 341.400 C 224.872 352.653,223.472 354.430,216.653 355.234 C 206.754 356.402,204.134 354.461,201.987 344.366 C 200.061 335.313,199.613 334.132,196.884 330.916 C 193.020 326.361,192.278 324.817,189.524 315.600 C 188.892 313.483,186.182 308.709,184.978 307.590 C 182.581 305.363,179.963 300.292,178.580 295.200 C 177.601 291.593,177.047 290.592,174.324 287.504 C 170.495 283.162,166.813 275.507,166.796 271.852 C 166.789 270.198,164.862 266.886,162.545 264.544 C 159.522 261.488,157.444 257.251,155.803 250.800 C 155.014 247.695,152.380 242.608,150.815 241.165 C 149.177 239.655,146.904 234.622,145.730 229.910 C 144.369 224.442,142.644 220.828,139.663 217.200 C 136.752 213.655,134.768 209.810,133.578 205.400 C 132.586 201.724,130.773 198.499,128.407 196.200 C 125.707 193.577,124.677 191.374,121.999 182.491 C 120.987 179.134,120.447 178.029,119.052 176.459 C 115.002 171.898,113.068 168.301,111.171 161.800 C 109.587 156.373,108.398 153.938,106.762 152.773 C 103.957 150.775,100.988 144.386,100.004 138.227 C 99.412 134.521,97.405 130.720,94.287 127.400 C 92.473 125.468,90.433 121.314,88.952 116.535 C 87.953 113.310,86.301 109.699,85.597 109.200 C 82.768 107.196,77.202 96.811,77.200 93.533 C 77.199 92.130,74.540 87.598,72.427 85.397 C 71.153 84.070,69.740 82.258,69.287 81.371 L 68.465 79.759 69.608 77.049 C 71.812 71.825,73.507 70.514,79.445 69.442 C 84.254 68.573,344.569 68.532,350.800 69.399 " stroke="none" fill="#1551e8" fill-rule="evenodd"></path><path id="path1" d="M0.000 13.200 C 0.000 21.282,0.148 26.400,0.380 26.400 C 0.590 26.400,1.805 26.091,3.080 25.712 C 5.257 25.067,17.193 25.018,196.781 24.913 C 403.111 24.793,391.919 24.688,396.646 26.779 C 400.276 28.385,400.000 29.451,400.000 13.800 L 400.000 0.000 200.000 0.000 L 0.000 0.000 0.000 13.200 M398.400 52.751 C 398.400 56.714,394.460 63.253,391.072 64.912 C 388.505 66.169,388.439 66.312,387.219 73.218 C 385.917 80.584,383.721 85.278,380.862 86.802 C 377.329 88.687,376.447 90.055,375.801 94.660 C 374.487 104.023,372.227 108.815,368.373 110.411 C 367.152 110.917,366.298 112.902,365.797 116.400 C 365.537 118.220,364.045 123.605,362.953 126.667 C 362.052 129.194,359.610 131.707,356.851 132.945 C 354.117 134.172,353.821 134.724,353.386 139.400 C 352.732 146.453,350.369 151.999,347.258 153.786 C 343.896 155.717,342.628 158.092,341.783 164.037 C 340.847 170.619,338.275 175.084,334.510 176.662 C 332.933 177.322,332.214 178.639,331.584 182.016 C 329.756 191.807,328.301 195.007,323.981 198.739 C 320.256 201.957,320.176 202.109,319.377 207.504 C 318.140 215.849,315.345 221.346,311.898 222.211 C 310.683 222.516,309.429 225.405,308.778 229.400 C 307.383 237.963,304.852 242.651,300.447 244.837 C 298.164 245.970,297.819 246.696,297.214 251.640 C 296.314 258.990,292.397 266.800,289.611 266.800 C 288.350 266.800,286.340 271.486,285.605 276.141 C 284.603 282.478,281.867 287.270,278.400 288.762 C 276.173 289.720,275.436 291.118,274.803 295.582 C 274.057 300.838,271.192 306.696,268.197 309.085 C 267.429 309.698,266.800 310.390,266.800 310.622 C 266.800 310.854,266.174 311.727,265.408 312.563 C 264.101 313.990,263.978 314.368,263.394 318.741 C 262.238 327.389,260.059 332.234,256.564 333.933 C 254.808 334.786,252.801 337.747,252.799 339.487 C 252.799 340.671,250.916 348.060,249.973 350.580 C 248.982 353.228,247.206 355.167,244.093 357.000 C 241.803 358.348,241.625 358.768,240.801 364.767 C 239.954 370.927,237.850 375.329,234.616 377.700 C 231.493 379.991,230.040 382.338,229.370 386.179 C 228.229 392.717,225.041 398.421,221.506 400.249 C 220.238 400.904,219.234 402.889,218.400 406.388 C 216.891 412.717,215.359 414.195,208.600 415.843 C 205.060 416.707,203.926 417.166,202.800 418.192 C 198.543 422.071,197.003 422.149,193.800 418.648 C 192.230 416.932,191.453 416.522,184.439 413.704 C 180.669 412.189,179.042 410.325,177.759 406.049 C 177.190 404.152,176.379 401.750,175.956 400.712 C 175.534 399.673,175.076 397.963,174.940 396.912 C 174.658 394.732,174.003 393.823,171.973 392.786 C 169.796 391.675,167.715 389.122,167.026 386.717 C 166.692 385.552,165.912 382.620,165.293 380.200 C 163.906 374.779,163.380 373.872,160.178 371.380 C 157.244 369.097,156.015 367.113,154.860 362.800 C 152.998 355.846,151.408 351.191,150.817 350.968 C 147.260 349.623,144.202 343.494,142.831 334.965 C 141.913 329.255,140.784 326.560,138.824 325.406 C 134.294 322.741,131.765 317.001,130.571 306.680 C 130.301 304.343,129.639 303.200,128.555 303.200 C 125.916 303.200,122.970 299.926,121.652 295.530 C 121.169 293.918,120.395 291.700,119.932 290.600 C 119.468 289.500,118.619 287.307,118.044 285.726 C 117.117 283.173,116.777 282.703,115.011 281.526 C 111.601 279.253,109.724 274.738,108.217 265.178 C 107.993 263.756,106.930 262.488,102.152 257.943 C 100.954 256.803,100.022 255.490,99.738 254.543 C 99.151 252.582,97.064 243.932,96.222 239.974 C 95.607 237.084,95.502 236.903,93.900 235.974 C 89.431 233.381,88.477 231.530,86.403 221.424 C 85.954 219.238,85.342 217.168,85.042 216.824 C 84.742 216.481,84.211 215.636,83.862 214.946 C 83.474 214.179,82.375 213.211,81.036 212.455 C 77.673 210.557,76.472 207.908,74.403 197.824 C 73.497 193.412,73.067 192.732,70.439 191.570 C 67.260 190.164,66.136 188.411,64.955 183.018 C 64.616 181.468,63.828 178.940,63.204 177.400 C 62.581 175.860,61.781 173.610,61.426 172.400 C 60.825 170.351,60.646 170.141,58.821 169.339 C 56.381 168.268,54.742 165.637,53.753 161.205 C 52.076 153.690,51.683 152.544,50.025 150.327 C 49.118 149.115,47.929 147.883,47.381 147.590 C 44.636 146.121,43.205 142.818,41.394 133.778 C 39.541 124.528,39.709 124.892,36.439 123.050 C 32.956 121.088,32.299 119.945,30.840 113.314 C 29.257 106.120,27.792 103.523,23.487 100.285 C 21.311 98.648,19.590 93.969,17.623 84.347 C 17.190 82.227,15.231 79.600,14.083 79.600 C 12.159 79.600,9.066 74.653,8.570 70.784 C 8.416 69.583,7.595 66.863,6.745 64.740 C 5.895 62.617,5.200 60.714,5.200 60.512 C 5.200 59.438,1.950 56.800,0.626 56.800 C 0.059 56.800,0.000 74.503,0.000 245.400 L 0.000 434.000 200.000 434.000 L 400.000 434.000 400.000 243.000 C 400.000 52.267,399.999 52.000,399.200 52.000 C 398.684 52.000,398.400 52.267,398.400 52.751 M84.700 79.063 C 82.950 79.789,82.963 79.691,83.999 84.268 C 84.439 86.211,85.011 88.758,85.270 89.928 C 85.734 92.023,85.780 92.074,88.210 93.176 C 91.753 94.782,92.574 96.054,94.074 102.258 C 95.341 107.497,95.701 108.669,97.130 112.200 C 97.774 113.794,98.289 114.386,99.666 115.118 C 104.284 117.572,105.791 121.260,107.517 134.341 C 107.796 136.448,107.828 136.491,109.600 137.081 C 113.425 138.356,115.492 141.066,116.419 146.025 C 116.684 147.441,117.237 149.770,117.647 151.200 C 118.058 152.630,118.569 154.738,118.783 155.884 C 119.307 158.680,119.809 159.374,122.083 160.439 C 125.983 162.265,127.809 166.356,129.211 176.400 C 129.740 180.196,130.234 180.860,134.728 183.823 C 137.002 185.322,137.912 186.826,138.829 190.600 C 139.097 191.700,139.451 192.780,139.617 193.000 C 139.867 193.331,141.222 198.729,141.827 201.800 C 141.915 202.246,143.150 203.371,144.620 204.342 C 147.249 206.080,149.487 208.613,149.774 210.176 C 151.208 217.981,153.825 224.693,156.031 226.221 C 159.728 228.784,161.567 233.342,162.823 243.057 C 163.650 249.457,163.576 249.282,165.776 250.069 C 169.568 251.426,171.400 254.004,173.030 260.275 C 173.580 262.392,174.105 264.246,174.196 264.394 C 174.288 264.542,174.557 265.880,174.795 267.366 C 175.337 270.759,175.929 271.658,178.628 273.181 C 182.054 275.115,183.712 278.798,185.627 288.725 C 186.112 291.242,186.126 291.260,189.246 293.635 C 192.681 296.250,194.031 298.145,194.936 301.619 C 195.254 302.840,195.963 305.270,196.512 307.019 C 197.060 308.769,197.641 311.010,197.801 312.000 C 198.149 314.147,198.649 315.200,199.321 315.200 C 200.161 315.200,203.955 318.779,204.973 320.533 C 205.596 321.606,206.444 324.599,207.351 328.931 C 208.301 333.467,209.093 336.230,209.779 337.401 L 210.798 339.139 214.003 339.270 C 220.174 339.521,220.341 339.387,221.220 333.507 C 222.814 322.846,224.112 319.817,227.865 318.000 C 229.853 317.038,229.962 316.898,230.765 314.300 C 232.372 309.104,233.190 306.178,233.790 303.484 C 234.829 298.826,236.055 297.198,240.050 295.177 C 242.654 293.860,242.677 293.817,243.435 288.807 C 244.705 280.408,246.823 275.442,250.282 272.756 C 252.858 270.756,254.239 267.588,255.780 260.142 C 257.221 253.179,260.123 249.200,263.760 249.200 C 264.449 249.200,264.633 248.680,265.179 245.191 C 265.548 242.827,266.059 240.674,267.702 234.563 C 268.605 231.205,270.080 229.101,272.424 227.825 C 274.969 226.440,276.768 224.540,276.802 223.200 C 277.019 214.775,280.679 206.626,284.868 205.244 C 286.394 204.740,286.308 204.940,289.005 195.600 C 291.694 186.287,292.216 185.436,296.238 183.801 C 299.001 182.678,299.442 181.804,299.841 176.656 C 300.507 168.092,302.212 163.074,305.200 160.890 C 308.344 158.592,308.728 158.154,309.181 156.358 C 309.425 155.391,309.963 153.790,310.376 152.800 C 310.788 151.810,311.516 149.290,311.993 147.200 C 313.408 140.995,315.303 138.291,319.162 136.971 C 320.590 136.483,320.605 136.454,321.233 132.940 C 321.887 129.284,323.571 123.005,324.649 120.200 C 325.515 117.946,326.591 116.925,329.800 115.309 C 333.158 113.617,333.034 113.788,333.317 110.466 C 334.117 101.083,336.258 96.091,340.374 94.013 L 342.667 92.856 343.544 89.728 C 345.272 83.566,345.528 82.580,345.776 81.120 L 346.029 79.640 343.942 79.020 C 340.750 78.072,86.987 78.115,84.700 79.063 " stroke="none" fill="#fbfbfc" fill-rule="evenodd"></path><path id="path2" d="M8.400 28.806 C 5.670 29.179,4.225 29.739,2.714 31.011 C 2.067 31.555,1.192 32.000,0.769 32.000 C -0.416 32.000,-0.431 48.671,0.753 48.872 C 2.181 49.114,8.269 56.286,8.795 58.345 C 10.922 66.675,12.852 70.890,16.153 74.410 C 18.891 77.330,19.874 79.277,21.392 84.778 C 23.025 90.697,25.057 94.649,27.678 97.005 C 30.673 99.698,31.053 100.491,33.190 108.536 C 34.339 112.859,35.589 115.145,38.532 118.299 C 42.036 122.055,42.498 122.993,44.195 129.800 C 45.981 136.966,46.711 138.509,50.109 142.298 C 52.386 144.837,52.837 145.619,53.803 148.695 C 57.106 159.216,57.976 161.062,61.437 164.890 C 64.717 168.517,64.874 168.824,66.186 174.173 C 67.667 180.211,69.147 183.298,71.955 186.200 C 74.897 189.242,76.027 191.277,77.339 195.897 C 78.792 201.018,81.120 205.455,83.938 208.479 C 86.791 211.540,87.307 212.510,88.855 217.720 C 90.446 223.077,92.294 226.934,94.466 229.435 C 97.871 233.356,98.763 235.160,99.822 240.267 C 101.547 248.590,102.318 250.273,106.401 254.622 C 108.684 257.055,109.176 257.854,109.966 260.422 C 112.148 267.509,112.565 268.726,113.588 271.000 C 114.182 272.320,115.929 274.930,117.470 276.800 C 120.790 280.828,121.053 281.288,122.013 284.744 C 123.546 290.265,126.979 296.494,129.225 297.828 C 130.633 298.665,132.851 303.201,133.830 307.245 C 135.007 312.105,136.865 315.801,140.021 319.560 C 142.931 323.026,143.895 324.904,144.858 328.979 C 146.628 336.474,148.046 339.555,152.324 345.199 C 153.671 346.978,154.424 348.737,156.257 354.395 C 158.764 362.127,159.842 364.198,162.763 366.889 C 165.109 369.050,166.133 370.922,166.990 374.621 C 167.785 378.048,170.666 384.147,172.365 386.000 C 176.129 390.104,177.202 392.071,179.171 398.472 C 182.652 409.790,193.000 416.409,203.159 413.817 C 211.798 411.613,213.797 409.796,216.647 401.557 C 218.746 395.490,219.832 393.400,221.626 391.979 C 223.644 390.381,224.799 388.392,226.736 383.179 C 228.982 377.135,230.549 374.142,233.008 371.200 C 235.575 368.128,237.273 365.057,238.216 361.779 C 239.966 355.699,241.938 351.638,244.650 348.528 C 247.579 345.170,248.277 343.825,249.772 338.662 C 251.402 333.031,253.341 329.236,256.307 325.868 C 258.145 323.781,258.915 321.880,261.632 312.730 L 263.969 304.861 265.978 302.982 C 268.829 300.315,270.520 297.566,272.127 292.986 C 274.922 285.021,276.176 282.524,278.374 280.547 C 280.421 278.707,283.200 273.859,283.200 272.128 C 283.200 269.336,286.719 261.948,289.575 258.743 C 291.813 256.233,293.180 253.678,294.362 249.800 C 296.344 243.299,298.090 239.457,299.998 237.404 C 303.388 233.755,304.286 232.079,306.427 225.400 C 308.697 218.318,310.077 215.489,312.576 212.798 C 314.363 210.873,316.277 207.248,316.637 205.106 C 317.424 200.419,320.199 194.296,322.880 191.328 C 325.848 188.043,326.995 185.900,328.567 180.702 C 330.152 175.461,332.836 170.079,334.803 168.200 C 336.972 166.127,338.103 163.848,340.246 157.237 C 342.027 151.739,343.468 149.058,346.364 145.852 C 348.501 143.486,349.441 141.760,350.201 138.800 C 351.434 133.997,353.971 128.493,355.697 126.878 C 356.970 125.686,359.420 122.348,360.909 119.775 C 361.044 119.541,361.861 116.931,362.725 113.975 C 364.600 107.560,366.373 103.642,368.507 101.200 C 370.949 98.406,371.787 96.684,374.029 89.845 C 375.977 83.904,376.260 83.318,378.386 80.845 C 381.879 76.782,382.722 75.272,384.009 70.766 C 385.704 64.833,388.433 59.335,390.847 56.993 C 394.694 53.262,396.070 49.701,396.948 41.200 C 397.721 33.724,397.036 32.294,391.301 29.413 L 389.284 28.400 199.942 28.452 C 95.804 28.481,9.610 28.640,8.400 28.806 M390.287 31.907 C 390.775 32.186,391.826 33.266,392.622 34.307 L 394.069 36.200 393.923 41.600 C 393.748 48.042,392.870 50.241,388.607 54.912 C 386.029 57.737,385.102 59.661,382.206 68.200 C 381.090 71.493,379.537 74.169,376.960 77.240 C 375.241 79.290,375.029 79.753,371.984 88.108 C 370.010 93.525,369.355 94.841,367.343 97.430 C 364.147 101.543,362.903 104.138,361.317 110.000 C 359.585 116.405,358.219 119.308,355.700 121.935 C 353.253 124.487,351.280 128.131,349.471 133.438 C 347.638 138.818,346.406 141.114,343.873 143.866 C 341.657 146.274,339.399 151.009,337.809 156.583 C 336.911 159.733,335.581 162.295,333.503 164.881 C 329.610 169.726,329.273 170.421,325.951 180.473 C 324.844 183.822,324.330 184.742,322.145 187.273 C 318.974 190.948,318.047 192.681,316.187 198.412 C 314.121 204.778,312.840 207.444,310.616 210.000 C 308.290 212.674,306.477 216.491,304.614 222.637 C 302.937 228.167,301.432 231.124,298.927 233.808 C 296.796 236.092,295.166 239.448,293.006 246.000 C 291.053 251.924,290.466 253.049,287.863 255.869 C 285.149 258.808,284.317 260.461,282.163 267.184 C 280.371 272.780,279.124 275.175,276.482 278.098 C 274.190 280.634,273.410 282.126,270.963 288.654 C 268.425 295.424,267.827 296.516,264.930 299.672 C 262.213 302.633,258.402 311.719,258.400 315.241 C 258.399 316.364,256.014 320.800,254.084 323.267 C 251.510 326.558,250.873 327.876,248.606 334.600 C 246.488 340.881,245.537 342.744,242.971 345.632 C 240.747 348.137,239.269 351.048,237.251 356.902 C 235.180 362.908,234.101 364.969,231.239 368.386 C 229.077 370.967,224.811 379.535,224.796 381.326 C 224.787 382.466,222.711 386.006,220.649 388.400 C 218.054 391.412,217.088 393.217,214.557 399.774 C 211.449 407.824,210.390 408.890,203.395 411.010 C 197.984 412.650,197.162 412.609,193.097 410.500 C 187.379 407.533,182.971 401.789,180.056 393.506 C 178.321 388.576,177.494 387.090,174.107 382.825 C 172.523 380.831,170.418 376.786,169.228 373.451 C 167.343 368.164,166.529 366.636,163.735 363.130 C 160.690 359.310,159.880 357.652,157.807 351.000 C 156.056 345.383,155.011 343.182,152.346 339.501 C 150.276 336.640,148.788 333.271,147.009 327.410 C 145.625 322.851,143.729 319.053,140.814 315.000 C 137.955 311.025,137.499 310.138,135.772 305.176 C 133.785 299.466,132.687 297.337,129.998 293.974 C 127.239 290.526,125.622 287.653,124.382 284.000 C 122.872 279.552,120.977 275.887,119.027 273.639 C 116.638 270.886,115.513 268.664,113.197 262.126 C 111.237 256.593,109.564 253.415,107.157 250.655 C 104.817 247.971,104.370 246.884,100.804 235.200 C 99.413 230.639,98.677 229.175,96.361 226.355 C 94.169 223.687,92.198 219.893,90.981 216.000 C 89.610 211.613,87.666 207.917,85.188 204.985 C 82.973 202.366,80.773 198.054,78.789 192.444 C 77.548 188.933,76.448 187.068,72.718 182.153 C 71.039 179.940,68.871 175.000,67.402 170.041 C 66.260 166.186,65.223 164.283,62.606 161.237 C 60.324 158.580,58.970 155.913,57.005 150.200 C 55.128 144.743,53.593 141.640,51.367 138.800 C 49.280 136.138,48.134 133.598,46.405 127.800 C 44.750 122.253,43.433 119.563,40.516 115.776 C 37.208 111.481,36.247 109.640,34.372 104.000 C 32.334 97.873,32.029 97.259,29.403 94.000 C 26.769 90.732,25.384 88.517,24.882 86.767 C 23.239 81.043,19.702 73.247,18.174 71.978 C 16.479 70.571,13.379 64.559,11.792 59.600 C 10.649 56.028,8.493 52.086,6.213 49.398 C 3.618 46.338,3.601 46.288,3.262 40.538 C 2.818 33.026,3.833 32.011,12.200 31.602 C 23.120 31.068,389.337 31.364,390.287 31.907 M82.881 73.209 C 78.925 74.245,75.619 76.078,74.070 78.093 L 72.795 79.751 73.798 80.798 C 74.349 81.373,74.800 81.988,74.800 82.164 C 74.800 82.340,75.261 83.032,75.824 83.702 C 77.190 85.325,78.882 88.769,80.001 92.200 C 81.338 96.305,83.628 100.646,86.014 103.600 C 88.285 106.412,89.854 109.503,91.377 114.167 C 92.662 118.104,93.254 119.185,96.324 123.199 C 99.319 127.117,100.176 128.890,102.188 135.335 C 104.144 141.601,105.046 143.535,108.095 148.004 C 111.173 152.516,111.990 154.081,113.204 157.800 C 114.860 162.872,117.127 167.506,119.209 170.074 C 121.588 173.010,124.069 177.935,124.955 181.485 C 125.788 184.822,128.339 189.794,130.539 192.372 C 132.476 194.641,134.365 198.250,135.794 202.408 C 137.076 206.141,138.162 208.145,140.992 212.000 C 144.617 216.939,145.407 218.480,147.371 224.439 C 149.741 231.630,150.244 232.726,153.390 237.527 C 155.701 241.052,156.382 242.537,158.066 247.723 C 160.180 254.232,160.786 255.465,164.001 259.800 C 166.619 263.328,167.699 265.454,169.462 270.542 C 171.452 276.284,172.781 278.887,175.824 283.000 C 178.762 286.971,179.932 289.096,181.001 292.400 C 182.273 296.331,184.254 300.146,186.402 302.800 C 188.384 305.250,191.600 311.122,191.600 312.291 C 191.600 312.972,192.898 316.832,193.960 319.308 C 194.410 320.357,195.790 322.484,197.028 324.035 C 199.983 327.739,201.937 332.063,203.979 339.419 C 207.049 350.483,207.685 351.111,215.108 350.408 C 220.008 349.944,220.676 349.601,222.282 346.725 C 223.507 344.532,224.011 343.147,225.825 337.000 C 227.139 332.546,227.916 331.004,230.762 327.200 C 233.382 323.699,235.081 320.322,236.577 315.639 C 237.960 311.313,239.886 307.508,241.966 304.996 C 243.859 302.708,246.770 297.228,247.805 294.000 C 248.435 292.037,249.345 289.769,250.455 287.397 C 250.662 286.956,251.843 285.336,253.079 283.797 C 255.854 280.346,256.817 278.277,258.385 272.400 C 259.849 266.914,262.030 262.293,264.728 258.957 C 266.706 256.512,268.488 253.154,269.798 249.400 C 272.525 241.584,273.388 239.843,276.635 235.600 C 278.846 232.710,280.112 230.112,281.958 224.673 C 283.815 219.205,284.388 218.061,286.803 215.000 C 289.771 211.237,291.130 208.764,292.558 204.528 C 294.313 199.324,295.558 196.953,297.904 194.356 C 300.262 191.744,302.683 186.850,304.412 181.200 C 305.789 176.701,308.530 170.956,310.233 169.000 C 311.819 167.179,313.009 164.588,315.167 158.257 C 317.546 151.279,317.576 151.220,321.300 146.133 C 323.838 142.666,324.472 141.457,325.598 137.933 C 327.428 132.209,329.146 128.583,331.252 126.000 C 333.974 122.661,336.214 118.626,337.777 114.245 C 339.505 109.399,341.503 105.698,343.817 103.051 C 345.707 100.891,347.885 96.260,349.414 91.154 C 350.557 87.334,351.736 85.270,354.551 82.159 L 356.714 79.769 355.657 78.185 C 354.305 76.157,349.827 73.874,345.517 73.015 C 340.184 71.951,86.966 72.139,82.881 73.209 M343.680 75.650 C 347.874 76.540,352.403 79.292,351.434 80.362 C 350.475 81.422,348.121 86.775,347.272 89.827 C 345.999 94.405,344.127 97.735,340.118 102.557 C 338.631 104.345,337.407 107.045,336.200 111.200 C 334.845 115.860,333.133 119.363,331.775 120.253 C 329.094 122.010,325.695 128.291,324.625 133.464 C 323.894 136.996,321.865 140.741,319.185 143.505 C 316.679 146.088,314.969 149.911,312.433 158.600 C 311.800 160.769,310.971 162.257,308.755 165.200 C 305.214 169.903,304.398 171.640,302.649 178.200 C 301.261 183.408,298.927 188.865,297.825 189.482 C 296.579 190.179,292.968 195.495,292.306 197.606 C 289.487 206.592,289.693 206.146,286.742 209.640 C 283.416 213.578,281.257 217.690,280.043 222.400 C 278.808 227.188,277.236 230.325,274.820 232.818 C 272.325 235.393,269.611 240.782,268.584 245.200 C 267.606 249.403,265.778 252.969,263.154 255.787 C 260.427 258.716,259.233 261.015,257.850 266.000 C 255.706 273.729,255.109 275.182,252.757 278.393 C 249.542 282.783,247.456 286.797,246.206 291.000 C 244.920 295.326,242.923 299.125,240.760 301.356 C 238.251 303.945,236.377 307.696,234.603 313.681 C 233.020 319.023,232.885 319.297,230.241 322.497 C 226.762 326.707,225.392 329.451,224.007 334.974 C 221.585 344.628,220.632 345.600,213.585 345.600 C 208.343 345.600,207.817 344.941,205.398 335.354 C 203.769 328.899,201.953 324.924,199.222 321.837 C 196.183 318.403,195.495 317.105,194.073 312.117 C 192.155 305.387,190.491 302.050,187.633 299.201 C 184.776 296.353,184.299 295.510,183.193 291.349 C 182.049 287.046,180.148 283.029,178.013 280.400 C 174.716 276.341,172.797 273.117,171.963 270.235 C 170.213 264.182,169.889 263.309,168.348 260.479 C 167.473 258.873,166.075 256.943,165.243 256.191 C 163.360 254.490,160.586 249.031,159.965 245.802 C 158.778 239.639,157.371 236.476,153.864 232.080 C 151.088 228.601,150.698 227.789,149.498 223.000 C 148.007 217.043,146.193 213.056,143.780 210.432 C 140.276 206.623,139.283 204.922,137.819 200.234 C 136.299 195.365,133.440 190.120,130.823 187.400 C 129.012 185.518,127.929 183.476,126.996 180.188 C 124.699 172.092,124.102 170.807,120.571 166.368 C 116.903 161.755,117.003 161.942,115.584 157.000 C 113.900 151.136,112.063 147.260,109.839 144.883 C 107.716 142.614,105.106 137.317,104.400 133.850 C 103.215 128.022,100.986 123.360,97.778 120.000 C 94.768 116.847,93.982 115.349,92.446 109.834 C 91.085 104.946,90.232 103.341,86.666 98.954 C 83.547 95.115,83.229 94.504,81.598 89.200 C 80.299 84.974,78.389 80.688,77.584 80.190 C 76.765 79.684,81.342 76.794,84.600 75.761 C 86.793 75.065,340.414 74.957,343.680 75.650 " stroke="none" fill="#98aff0" fill-rule="evenodd"></path><path id="path3" d="M10.600 25.206 C 6.728 25.347,2.982 25.692,1.900 26.009 L -0.000 26.566 -0.000 29.283 C 0.000 32.423,0.594 32.795,2.733 30.995 C 5.852 28.370,-12.989 28.611,198.335 28.496 L 389.269 28.393 391.294 29.409 C 397.037 32.294,397.721 33.721,396.948 41.200 C 396.070 49.701,394.694 53.262,390.847 56.993 C 388.433 59.335,385.704 64.833,384.009 70.766 C 382.722 75.272,381.879 76.782,378.386 80.845 C 376.260 83.318,375.977 83.904,374.029 89.845 C 371.787 96.684,370.949 98.406,368.507 101.200 C 366.373 103.642,364.600 107.560,362.725 113.975 C 361.861 116.931,361.044 119.541,360.909 119.775 C 359.420 122.348,356.970 125.686,355.697 126.878 C 353.971 128.493,351.434 133.997,350.201 138.800 C 349.441 141.760,348.501 143.486,346.364 145.852 C 343.468 149.058,342.027 151.739,340.246 157.237 C 338.103 163.848,336.972 166.127,334.803 168.200 C 332.836 170.079,330.152 175.461,328.567 180.702 C 326.995 185.900,325.848 188.043,322.880 191.328 C 320.199 194.296,317.424 200.419,316.637 205.106 C 316.277 207.248,314.363 210.873,312.576 212.798 C 310.077 215.489,308.697 218.318,306.427 225.400 C 304.286 232.079,303.388 233.755,299.998 237.404 C 298.090 239.457,296.344 243.299,294.362 249.800 C 293.180 253.678,291.813 256.233,289.575 258.743 C 286.719 261.948,283.200 269.336,283.200 272.128 C 283.200 273.859,280.421 278.707,278.374 280.547 C 276.176 282.524,274.922 285.021,272.127 292.986 C 270.520 297.566,268.829 300.315,265.978 302.982 L 263.969 304.861 261.632 312.730 C 258.915 321.880,258.145 323.781,256.307 325.868 C 253.341 329.236,251.402 333.031,249.772 338.662 C 248.277 343.825,247.579 345.170,244.650 348.528 C 241.938 351.638,239.966 355.699,238.216 361.779 C 237.273 365.057,235.575 368.128,233.008 371.200 C 230.549 374.142,228.982 377.135,226.736 383.179 C 224.799 388.392,223.644 390.381,221.626 391.979 C 219.832 393.400,218.746 395.490,216.647 401.557 C 213.797 409.796,211.798 411.613,203.159 413.817 C 193.000 416.409,182.652 409.790,179.171 398.472 C 177.202 392.071,176.129 390.104,172.365 386.000 C 170.666 384.147,167.785 378.048,166.990 374.621 C 166.133 370.922,165.109 369.050,162.763 366.889 C 159.842 364.198,158.764 362.127,156.257 354.395 C 154.424 348.737,153.671 346.978,152.324 345.199 C 148.046 339.555,146.628 336.474,144.858 328.979 C 143.895 324.904,142.931 323.026,140.021 319.560 C 136.865 315.801,135.007 312.105,133.830 307.245 C 132.851 303.201,130.633 298.665,129.225 297.828 C 126.979 296.494,123.546 290.265,122.013 284.744 C 121.053 281.288,120.790 280.828,117.470 276.800 C 115.929 274.930,114.182 272.320,113.588 271.000 C 112.565 268.726,112.148 267.509,109.966 260.422 C 109.176 257.854,108.684 257.055,106.401 254.622 C 102.318 250.273,101.547 248.590,99.822 240.267 C 98.763 235.160,97.871 233.356,94.466 229.435 C 92.294 226.934,90.446 223.077,88.855 217.720 C 87.307 212.510,86.791 211.540,83.938 208.479 C 81.120 205.455,78.792 201.018,77.339 195.897 C 76.027 191.277,74.897 189.242,71.955 186.200 C 69.147 183.298,67.667 180.211,66.186 174.173 C 64.874 168.824,64.717 168.517,61.437 164.890 C 57.976 161.062,57.106 159.216,53.803 148.695 C 52.837 145.619,52.386 144.837,50.109 142.298 C 46.711 138.509,45.981 136.966,44.195 129.800 C 42.498 122.993,42.036 122.055,38.532 118.299 C 35.589 115.145,34.339 112.859,33.190 108.536 C 31.053 100.491,30.673 99.698,27.678 97.005 C 25.057 94.649,23.025 90.697,21.392 84.778 C 19.874 79.277,18.891 77.330,16.153 74.410 C 12.852 70.890,10.922 66.675,8.795 58.345 C 8.427 56.903,7.562 55.656,4.914 52.745 C 0.282 47.654,-0.000 47.653,0.000 52.722 L 0.000 56.700 1.197 56.939 C 2.369 57.174,5.200 59.673,5.200 60.474 C 5.200 60.697,5.895 62.617,6.745 64.740 C 7.595 66.863,8.416 69.583,8.570 70.784 C 9.066 74.653,12.159 79.600,14.083 79.600 C 15.231 79.600,17.190 82.227,17.623 84.347 C 19.590 93.969,21.311 98.648,23.487 100.285 C 27.792 103.523,29.257 106.120,30.840 113.314 C 32.299 119.945,32.956 121.088,36.439 123.050 C 39.709 124.892,39.541 124.528,41.394 133.778 C 43.205 142.818,44.636 146.121,47.381 147.590 C 47.929 147.883,49.118 149.115,50.025 150.327 C 51.683 152.544,52.076 153.690,53.753 161.205 C 54.742 165.637,56.381 168.268,58.821 169.339 C 60.646 170.141,60.825 170.351,61.426 172.400 C 61.781 173.610,62.581 175.860,63.204 177.400 C 63.828 178.940,64.616 181.468,64.955 183.018 C 66.136 188.411,67.260 190.164,70.439 191.570 C 73.067 192.732,73.497 193.412,74.403 197.824 C 76.472 207.908,77.673 210.557,81.036 212.455 C 82.375 213.211,83.474 214.179,83.862 214.946 C 84.211 215.636,84.742 216.481,85.042 216.824 C 85.342 217.168,85.954 219.238,86.403 221.424 C 88.477 231.530,89.431 233.381,93.900 235.974 C 95.502 236.903,95.607 237.084,96.222 239.974 C 97.064 243.932,99.151 252.582,99.738 254.543 C 100.022 255.490,100.954 256.803,102.152 257.943 C 106.930 262.488,107.993 263.756,108.217 265.178 C 109.724 274.738,111.601 279.253,115.011 281.526 C 116.777 282.703,117.117 283.173,118.044 285.726 C 118.619 287.307,119.468 289.500,119.932 290.600 C 120.395 291.700,121.169 293.918,121.652 295.530 C 122.970 299.926,125.916 303.200,128.555 303.200 C 129.639 303.200,130.301 304.343,130.571 306.680 C 131.765 317.001,134.294 322.741,138.824 325.406 C 140.784 326.560,141.913 329.255,142.831 334.965 C 144.202 343.494,147.260 349.623,150.817 350.968 C 151.408 351.191,152.998 355.846,154.860 362.800 C 156.015 367.113,157.244 369.097,160.178 371.380 C 163.380 373.872,163.906 374.779,165.293 380.200 C 165.912 382.620,166.692 385.552,167.026 386.717 C 167.715 389.122,169.796 391.675,171.973 392.786 C 174.003 393.823,174.658 394.732,174.940 396.912 C 175.076 397.963,175.534 399.673,175.956 400.712 C 176.379 401.750,177.190 404.152,177.759 406.049 C 179.042 410.325,180.669 412.189,184.439 413.704 C 191.453 416.522,192.230 416.932,193.800 418.648 C 197.003 422.149,198.543 422.071,202.800 418.192 C 203.926 417.166,205.060 416.707,208.600 415.843 C 215.359 414.195,216.891 412.717,218.400 406.388 C 219.234 402.889,220.238 400.904,221.506 400.249 C 225.041 398.421,228.229 392.717,229.370 386.179 C 230.040 382.338,231.493 379.991,234.616 377.700 C 237.850 375.329,239.954 370.927,240.801 364.767 C 241.625 358.768,241.803 358.348,244.093 357.000 C 247.206 355.167,248.982 353.228,249.973 350.580 C 250.916 348.060,252.799 340.671,252.799 339.487 C 252.801 337.747,254.808 334.786,256.564 333.933 C 260.059 332.234,262.238 327.389,263.394 318.741 C 263.978 314.368,264.101 313.990,265.408 312.563 C 266.174 311.727,266.800 310.854,266.800 310.622 C 266.800 310.390,267.429 309.698,268.197 309.085 C 271.192 306.696,274.057 300.838,274.803 295.582 C 275.436 291.118,276.173 289.720,278.400 288.762 C 281.867 287.270,284.603 282.478,285.605 276.141 C 286.340 271.486,288.350 266.800,289.611 266.800 C 292.397 266.800,296.314 258.990,297.214 251.640 C 297.819 246.696,298.164 245.970,300.447 244.837 C 304.852 242.651,307.383 237.963,308.778 229.400 C 309.429 225.405,310.683 222.516,311.898 222.211 C 315.345 221.346,318.140 215.849,319.377 207.504 C 320.176 202.109,320.256 201.957,323.981 198.739 C 328.301 195.007,329.756 191.807,331.584 182.016 C 332.214 178.639,332.933 177.322,334.510 176.662 C 338.275 175.084,340.847 170.619,341.783 164.037 C 342.628 158.092,343.896 155.717,347.258 153.786 C 350.369 151.999,352.732 146.453,353.386 139.400 C 353.821 134.724,354.117 134.172,356.851 132.945 C 359.610 131.707,362.052 129.194,362.953 126.667 C 364.045 123.605,365.537 118.220,365.797 116.400 C 366.298 112.902,367.152 110.917,368.373 110.411 C 372.227 108.815,374.487 104.023,375.801 94.660 C 376.447 90.055,377.329 88.687,380.862 86.802 C 383.721 85.278,385.917 80.584,387.219 73.218 C 388.439 66.312,388.505 66.169,391.072 64.912 C 394.460 63.253,398.400 56.714,398.400 52.751 C 398.400 52.267,398.684 52.000,399.200 52.000 C 399.983 52.000,400.000 51.733,400.000 39.800 C 400.000 28.143,399.967 27.600,399.251 27.600 C 398.839 27.600,397.669 27.232,396.651 26.781 C 391.983 24.716,402.403 24.818,202.859 24.892 C 100.857 24.929,14.340 25.071,10.600 25.206 M84.600 75.761 C 81.342 76.794,76.765 79.684,77.584 80.190 C 78.389 80.688,80.299 84.974,81.598 89.200 C 83.229 94.504,83.547 95.115,86.666 98.954 C 90.232 103.341,91.085 104.946,92.446 109.834 C 93.982 115.349,94.768 116.847,97.778 120.000 C 100.986 123.360,103.215 128.022,104.400 133.850 C 105.106 137.317,107.716 142.614,109.839 144.883 C 112.063 147.260,113.900 151.136,115.584 157.000 C 117.003 161.942,116.903 161.755,120.571 166.368 C 124.102 170.807,124.699 172.092,126.996 180.188 C 127.929 183.476,129.012 185.518,130.823 187.400 C 133.440 190.120,136.299 195.365,137.819 200.234 C 139.283 204.922,140.276 206.623,143.780 210.432 C 146.193 213.056,148.007 217.043,149.498 223.000 C 150.698 227.789,151.088 228.601,153.864 232.080 C 157.371 236.476,158.778 239.639,159.965 245.802 C 160.586 249.031,163.360 254.490,165.243 256.191 C 166.075 256.943,167.473 258.873,168.348 260.479 C 169.889 263.309,170.213 264.182,171.963 270.235 C 172.797 273.117,174.716 276.341,178.013 280.400 C 180.148 283.029,182.049 287.046,183.193 291.349 C 184.299 295.510,184.776 296.353,187.633 299.201 C 190.491 302.050,192.155 305.387,194.073 312.117 C 195.495 317.105,196.183 318.403,199.222 321.837 C 201.953 324.924,203.769 328.899,205.398 335.354 C 207.817 344.941,208.343 345.600,213.585 345.600 C 220.632 345.600,221.585 344.628,224.007 334.974 C 225.392 329.451,226.762 326.707,230.241 322.497 C 232.885 319.297,233.020 319.023,234.603 313.681 C 236.377 307.696,238.251 303.945,240.760 301.356 C 242.923 299.125,244.920 295.326,246.206 291.000 C 247.456 286.797,249.542 282.783,252.757 278.393 C 255.109 275.182,255.706 273.729,257.850 266.000 C 259.233 261.015,260.427 258.716,263.154 255.787 C 265.778 252.969,267.606 249.403,268.584 245.200 C 269.611 240.782,272.325 235.393,274.820 232.818 C 277.236 230.325,278.808 227.188,280.043 222.400 C 281.257 217.690,283.416 213.578,286.742 209.640 C 289.693 206.146,289.487 206.592,292.306 197.606 C 292.968 195.495,296.579 190.179,297.825 189.482 C 298.927 188.865,301.261 183.408,302.649 178.200 C 304.398 171.640,305.214 169.903,308.755 165.200 C 310.971 162.257,311.800 160.769,312.433 158.600 C 314.969 149.911,316.679 146.088,319.185 143.505 C 321.865 140.741,323.894 136.996,324.625 133.464 C 325.695 128.291,329.094 122.010,331.775 120.253 C 333.133 119.363,334.845 115.860,336.200 111.200 C 337.407 107.045,338.631 104.345,340.118 102.557 C 344.127 97.735,345.999 94.405,347.272 89.827 C 348.121 86.775,350.475 81.422,351.434 80.362 C 352.403 79.292,347.874 76.540,343.680 75.650 C 340.414 74.957,86.793 75.065,84.600 75.761 M343.942 79.020 L 346.029 79.640 345.776 81.120 C 345.528 82.580,345.272 83.566,343.544 89.728 L 342.667 92.856 340.374 94.013 C 336.258 96.091,334.117 101.083,333.317 110.466 C 333.034 113.788,333.158 113.617,329.800 115.309 C 326.591 116.925,325.515 117.946,324.649 120.200 C 323.571 123.005,321.887 129.284,321.233 132.940 C 320.605 136.454,320.590 136.483,319.162 136.971 C 315.303 138.291,313.408 140.995,311.993 147.200 C 311.516 149.290,310.788 151.810,310.376 152.800 C 309.963 153.790,309.425 155.391,309.181 156.358 C 308.728 158.154,308.344 158.592,305.200 160.890 C 302.212 163.074,300.507 168.092,299.841 176.656 C 299.442 181.804,299.001 182.678,296.238 183.801 C 292.216 185.436,291.694 186.287,289.005 195.600 C 286.308 204.940,286.394 204.740,284.868 205.244 C 280.679 206.626,277.019 214.775,276.802 223.200 C 276.768 224.540,274.969 226.440,272.424 227.825 C 270.080 229.101,268.605 231.205,267.702 234.563 C 266.059 240.674,265.548 242.827,265.179 245.191 C 264.633 248.680,264.449 249.200,263.760 249.200 C 260.123 249.200,257.221 253.179,255.780 260.142 C 254.239 267.588,252.858 270.756,250.282 272.756 C 246.823 275.442,244.705 280.408,243.435 288.807 C 242.677 293.817,242.654 293.860,240.050 295.177 C 236.055 297.198,234.829 298.826,233.790 303.484 C 233.190 306.178,232.372 309.104,230.765 314.300 C 229.962 316.898,229.853 317.038,227.865 318.000 C 224.112 319.817,222.814 322.846,221.220 333.507 C 220.341 339.387,220.174 339.521,214.003 339.270 L 210.798 339.139 209.779 337.401 C 209.093 336.230,208.301 333.467,207.351 328.931 C 206.444 324.599,205.596 321.606,204.973 320.533 C 203.955 318.779,200.161 315.200,199.321 315.200 C 198.649 315.200,198.149 314.147,197.801 312.000 C 197.641 311.010,197.060 308.769,196.512 307.019 C 195.963 305.270,195.254 302.840,194.936 301.619 C 194.031 298.145,192.681 296.250,189.246 293.635 C 186.126 291.260,186.112 291.242,185.627 288.725 C 183.712 278.798,182.054 275.115,178.628 273.181 C 175.929 271.658,175.337 270.759,174.795 267.366 C 174.557 265.880,174.288 264.542,174.196 264.394 C 174.105 264.246,173.580 262.392,173.030 260.275 C 171.400 254.004,169.568 251.426,165.776 250.069 C 163.576 249.282,163.650 249.457,162.823 243.057 C 161.567 233.342,159.728 228.784,156.031 226.221 C 153.825 224.693,151.208 217.981,149.774 210.176 C 149.487 208.613,147.249 206.080,144.620 204.342 C 143.150 203.371,141.915 202.246,141.827 201.800 C 141.222 198.729,139.867 193.331,139.617 193.000 C 139.451 192.780,139.097 191.700,138.829 190.600 C 137.912 186.826,137.002 185.322,134.728 183.823 C 130.234 180.860,129.740 180.196,129.211 176.400 C 127.809 166.356,125.983 162.265,122.083 160.439 C 119.809 159.374,119.307 158.680,118.783 155.884 C 118.569 154.738,118.058 152.630,117.647 151.200 C 117.237 149.770,116.684 147.441,116.419 146.025 C 115.492 141.066,113.425 138.356,109.600 137.081 C 107.828 136.491,107.796 136.448,107.517 134.341 C 105.791 121.260,104.284 117.572,99.666 115.118 C 98.289 114.386,97.774 113.794,97.130 112.200 C 95.701 108.669,95.341 107.497,94.074 102.258 C 92.574 96.054,91.753 94.782,88.210 93.176 C 85.780 92.074,85.734 92.023,85.270 89.928 C 85.011 88.758,84.439 86.211,83.999 84.268 C 82.963 79.691,82.950 79.789,84.700 79.063 C 86.987 78.115,340.750 78.072,343.942 79.020 " stroke="none" fill="#c9d7f4" fill-rule="evenodd"></path><path id="path4" d="M12.200 31.602 C 3.833 32.011,2.818 33.026,3.262 40.538 C 3.601 46.288,3.618 46.338,6.213 49.398 C 8.493 52.086,10.649 56.028,11.792 59.600 C 13.379 64.559,16.479 70.571,18.174 71.978 C 19.702 73.247,23.239 81.043,24.882 86.767 C 25.384 88.517,26.769 90.732,29.403 94.000 C 32.029 97.259,32.334 97.873,34.372 104.000 C 36.247 109.640,37.208 111.481,40.516 115.776 C 43.433 119.563,44.750 122.253,46.405 127.800 C 48.134 133.598,49.280 136.138,51.367 138.800 C 53.593 141.640,55.128 144.743,57.005 150.200 C 58.970 155.913,60.324 158.580,62.606 161.237 C 65.223 164.283,66.260 166.186,67.402 170.041 C 68.871 175.000,71.039 179.940,72.718 182.153 C 76.448 187.068,77.548 188.933,78.789 192.444 C 80.773 198.054,82.973 202.366,85.188 204.985 C 87.666 207.917,89.610 211.613,90.981 216.000 C 92.198 219.893,94.169 223.687,96.361 226.355 C 98.677 229.175,99.413 230.639,100.804 235.200 C 104.370 246.884,104.817 247.971,107.157 250.655 C 109.564 253.415,111.237 256.593,113.197 262.126 C 115.513 268.664,116.638 270.886,119.027 273.639 C 120.977 275.887,122.872 279.552,124.382 284.000 C 125.622 287.653,127.239 290.526,129.998 293.974 C 132.687 297.337,133.785 299.466,135.772 305.176 C 137.499 310.138,137.955 311.025,140.814 315.000 C 143.729 319.053,145.625 322.851,147.009 327.410 C 148.788 333.271,150.276 336.640,152.346 339.501 C 155.011 343.182,156.056 345.383,157.807 351.000 C 159.880 357.652,160.690 359.310,163.735 363.130 C 166.529 366.636,167.343 368.164,169.228 373.451 C 170.418 376.786,172.523 380.831,174.107 382.825 C 177.494 387.090,178.321 388.576,180.056 393.506 C 182.971 401.789,187.379 407.533,193.097 410.500 C 197.162 412.609,197.984 412.650,203.395 411.010 C 210.390 408.890,211.449 407.824,214.557 399.774 C 217.088 393.217,218.054 391.412,220.649 388.400 C 222.711 386.006,224.787 382.466,224.796 381.326 C 224.811 379.535,229.077 370.967,231.239 368.386 C 234.101 364.969,235.180 362.908,237.251 356.902 C 239.269 351.048,240.747 348.137,242.971 345.632 C 245.537 342.744,246.488 340.881,248.606 334.600 C 250.873 327.876,251.510 326.558,254.084 323.267 C 256.014 320.800,258.399 316.364,258.400 315.241 C 258.402 311.719,262.213 302.633,264.930 299.672 C 267.827 296.516,268.425 295.424,270.963 288.654 C 273.410 282.126,274.190 280.634,276.482 278.098 C 279.124 275.175,280.371 272.780,282.163 267.184 C 284.317 260.461,285.149 258.808,287.863 255.869 C 290.466 253.049,291.053 251.924,293.006 246.000 C 295.166 239.448,296.796 236.092,298.927 233.808 C 301.432 231.124,302.937 228.167,304.614 222.637 C 306.477 216.491,308.290 212.674,310.616 210.000 C 312.840 207.444,314.121 204.778,316.187 198.412 C 318.047 192.681,318.974 190.948,322.145 187.273 C 324.330 184.742,324.844 183.822,325.951 180.473 C 329.273 170.421,329.610 169.726,333.503 164.881 C 335.581 162.295,336.911 159.733,337.809 156.583 C 339.399 151.009,341.657 146.274,343.873 143.866 C 346.406 141.114,347.638 138.818,349.471 133.438 C 351.280 128.131,353.253 124.487,355.700 121.935 C 358.219 119.308,359.585 116.405,361.317 110.000 C 362.903 104.138,364.147 101.543,367.343 97.430 C 369.355 94.841,370.010 93.525,371.984 88.108 C 375.029 79.753,375.241 79.290,376.960 77.240 C 379.537 74.169,381.090 71.493,382.206 68.200 C 385.102 59.661,386.029 57.737,388.607 54.912 C 392.870 50.241,393.748 48.042,393.923 41.600 L 394.069 36.200 392.622 34.307 C 391.826 33.266,390.775 32.186,390.287 31.907 C 389.337 31.364,23.120 31.068,12.200 31.602 M389.171 35.811 C 389.397 36.037,389.913 38.287,390.318 40.811 C 391.234 46.528,390.954 47.494,387.519 50.470 C 384.512 53.075,383.607 54.667,381.024 61.897 C 378.415 69.199,377.622 70.777,375.643 72.609 C 373.574 74.522,371.980 77.620,370.194 83.200 C 367.292 92.261,367.344 92.155,364.385 94.931 C 360.937 98.165,359.733 101.093,358.231 109.887 C 357.551 113.866,356.271 116.571,354.410 117.962 C 350.596 120.810,348.429 124.900,346.125 133.600 C 345.661 135.354,345.012 136.655,344.133 137.600 C 343.416 138.370,342.093 139.790,341.195 140.755 C 339.013 143.098,338.425 144.351,336.203 151.400 C 333.637 159.544,333.333 160.199,331.560 161.428 C 328.650 163.444,326.628 167.006,325.195 172.636 C 323.360 179.847,321.913 182.750,319.265 184.532 C 317.144 185.960,316.566 187.113,313.617 195.817 C 312.297 199.711,310.990 203.191,310.713 203.549 C 310.436 203.907,309.081 205.438,307.702 206.951 C 304.984 209.934,304.877 210.200,301.191 223.079 C 300.164 226.666,299.664 227.781,298.681 228.679 C 293.537 233.376,292.713 235.047,289.626 247.034 C 289.320 248.221,288.453 249.425,286.458 251.434 C 282.861 255.057,280.962 259.136,278.419 268.706 C 277.919 270.588,276.508 273.200,275.991 273.200 C 274.198 273.200,271.171 278.278,268.599 285.600 C 266.117 292.664,265.096 294.512,262.743 296.203 C 260.762 297.626,259.593 299.437,258.871 302.200 C 258.641 303.080,257.691 306.470,256.759 309.734 L 255.065 315.668 252.181 319.035 C 249.152 322.571,248.254 324.557,245.598 333.600 C 244.240 338.224,242.988 340.550,240.963 342.209 C 238.137 344.525,233.200 355.636,233.200 359.683 C 233.200 360.159,231.889 361.850,230.048 363.749 C 226.518 367.390,225.977 368.292,224.390 373.173 C 221.846 380.999,220.942 382.899,218.860 384.800 C 216.227 387.204,215.119 389.033,213.410 393.800 C 210.597 401.648,208.541 405.117,205.918 406.441 C 198.589 410.141,196.276 410.087,192.633 406.127 C 191.515 404.912,189.459 402.721,188.064 401.259 C 184.834 397.872,183.880 396.195,182.823 392.052 C 181.289 386.036,179.979 383.500,175.767 378.400 C 173.508 375.664,172.409 373.539,171.025 369.231 C 170.041 366.167,168.462 362.588,167.592 361.447 C 167.404 361.201,166.543 360.190,165.679 359.200 C 162.817 355.920,160.902 351.663,159.022 344.400 C 158.098 340.831,155.996 336.666,153.670 333.797 C 151.137 330.674,150.627 329.636,149.627 325.576 C 148.233 319.916,146.075 314.951,144.007 312.647 C 140.915 309.200,138.874 305.643,137.995 302.170 C 136.806 297.467,133.516 291.112,131.353 289.340 C 128.986 287.400,127.541 284.699,125.820 279.000 C 124.282 273.904,123.761 272.939,119.680 267.638 C 117.295 264.540,116.939 263.806,115.143 258.263 C 113.050 251.807,112.836 251.380,109.978 247.939 C 107.566 245.035,105.391 240.433,104.153 235.613 C 102.062 227.469,100.996 225.133,97.578 221.200 C 94.736 217.930,93.997 216.471,92.419 211.005 C 91.044 206.242,89.546 203.251,87.604 201.387 C 84.708 198.608,82.215 193.996,80.976 189.129 C 80.195 186.059,77.980 181.978,75.368 178.800 C 73.063 175.995,71.087 171.970,69.772 167.400 C 68.634 163.448,66.832 159.554,65.422 158.000 C 62.012 154.243,59.789 150.129,58.611 145.400 C 57.419 140.616,56.475 138.625,53.591 134.816 C 50.981 131.370,50.682 130.755,48.944 125.266 C 46.419 117.292,45.826 116.072,42.005 111.000 C 38.398 106.211,37.836 105.125,36.223 99.838 C 34.733 94.955,32.789 91.139,30.523 88.653 C 28.115 86.011,25.897 81.583,24.846 77.321 C 23.740 72.834,19.719 65.886,17.421 64.493 C 16.928 64.194,14.000 57.278,14.000 56.413 C 14.000 55.318,11.744 50.412,10.107 47.947 L 8.345 45.294 8.732 42.507 C 9.408 37.626,10.579 36.216,14.410 35.667 C 18.154 35.131,388.634 35.273,389.171 35.811 M79.445 69.442 C 73.507 70.514,71.812 71.825,69.608 77.049 L 68.465 79.759 69.287 81.371 C 69.740 82.258,71.153 84.070,72.427 85.397 C 74.540 87.598,77.199 92.130,77.200 93.533 C 77.202 96.811,82.768 107.196,85.597 109.200 C 86.301 109.699,87.953 113.310,88.952 116.535 C 90.433 121.314,92.473 125.468,94.287 127.400 C 97.405 130.720,99.412 134.521,100.004 138.227 C 100.988 144.386,103.957 150.775,106.762 152.773 C 108.398 153.938,109.587 156.373,111.171 161.800 C 113.068 168.301,115.002 171.898,119.052 176.459 C 120.447 178.029,120.987 179.134,121.999 182.491 C 124.677 191.374,125.707 193.577,128.407 196.200 C 130.773 198.499,132.586 201.724,133.578 205.400 C 134.768 209.810,136.752 213.655,139.663 217.200 C 142.644 220.828,144.369 224.442,145.730 229.910 C 146.904 234.622,149.177 239.655,150.815 241.165 C 152.380 242.608,155.014 247.695,155.803 250.800 C 157.444 257.251,159.522 261.488,162.545 264.544 C 164.862 266.886,166.789 270.198,166.796 271.852 C 166.813 275.507,170.495 283.162,174.324 287.504 C 177.047 290.592,177.601 291.593,178.580 295.200 C 179.963 300.292,182.581 305.363,184.978 307.590 C 186.182 308.709,188.892 313.483,189.524 315.600 C 192.278 324.817,193.020 326.361,196.884 330.916 C 199.613 334.132,200.061 335.313,201.987 344.366 C 204.134 354.461,206.754 356.402,216.653 355.234 C 223.472 354.430,224.872 352.653,227.554 341.400 C 228.635 336.861,229.595 334.963,232.305 332.000 C 235.450 328.561,237.375 324.529,238.989 318.000 C 239.840 314.558,241.932 310.076,242.818 309.794 C 245.301 309.006,248.251 303.575,250.212 296.180 C 251.288 292.124,252.311 290.294,254.563 288.400 C 257.605 285.841,257.935 285.336,259.157 281.362 C 259.828 279.183,260.745 275.723,261.195 273.673 C 262.217 269.021,263.363 266.735,266.099 263.888 C 268.730 261.149,270.881 256.880,272.262 251.655 C 273.412 247.303,276.095 241.751,277.220 241.394 C 279.252 240.749,282.113 235.198,283.557 229.098 C 284.634 224.549,285.536 222.841,288.788 219.200 C 291.681 215.961,293.604 212.114,295.164 206.451 C 295.611 204.829,296.343 202.743,296.792 201.817 C 297.635 200.075,297.754 199.941,300.866 197.203 C 303.036 195.293,304.678 191.627,306.778 184.000 C 308.126 179.104,308.790 177.838,311.860 174.306 C 314.095 171.735,315.867 167.544,317.232 161.600 C 318.393 156.544,319.573 154.210,322.074 152.023 C 324.537 149.868,326.616 145.775,328.193 139.978 C 329.573 134.902,331.287 131.675,334.190 128.686 C 336.802 125.995,338.778 121.978,340.348 116.163 C 341.368 112.385,341.861 111.540,345.168 107.893 C 348.770 103.922,349.959 101.315,351.593 93.800 C 352.391 90.128,353.850 87.721,356.178 86.231 C 360.252 83.626,361.157 80.365,359.054 75.874 C 356.692 70.828,355.748 70.087,350.800 69.399 C 344.569 68.532,84.254 68.573,79.445 69.442 M345.517 73.015 C 349.827 73.874,354.305 76.157,355.657 78.185 L 356.714 79.769 354.551 82.159 C 351.736 85.270,350.557 87.334,349.414 91.154 C 347.885 96.260,345.707 100.891,343.817 103.051 C 341.503 105.698,339.505 109.399,337.777 114.245 C 336.214 118.626,333.974 122.661,331.252 126.000 C 329.146 128.583,327.428 132.209,325.598 137.933 C 324.472 141.457,323.838 142.666,321.300 146.133 C 317.576 151.220,317.546 151.279,315.167 158.257 C 313.009 164.588,311.819 167.179,310.233 169.000 C 308.530 170.956,305.789 176.701,304.412 181.200 C 302.683 186.850,300.262 191.744,297.904 194.356 C 295.558 196.953,294.313 199.324,292.558 204.528 C 291.130 208.764,289.771 211.237,286.803 215.000 C 284.388 218.061,283.815 219.205,281.958 224.673 C 280.112 230.112,278.846 232.710,276.635 235.600 C 273.388 239.843,272.525 241.584,269.798 249.400 C 268.488 253.154,266.706 256.512,264.728 258.957 C 262.030 262.293,259.849 266.914,258.385 272.400 C 256.817 278.277,255.854 280.346,253.079 283.797 C 251.843 285.336,250.662 286.956,250.455 287.397 C 249.345 289.769,248.435 292.037,247.805 294.000 C 246.770 297.228,243.859 302.708,241.966 304.996 C 239.886 307.508,237.960 311.313,236.577 315.639 C 235.081 320.322,233.382 323.699,230.762 327.200 C 227.916 331.004,227.139 332.546,225.825 337.000 C 222.297 348.960,221.633 349.790,215.108 350.408 C 207.685 351.111,207.049 350.483,203.979 339.419 C 201.937 332.063,199.983 327.739,197.028 324.035 C 195.790 322.484,194.410 320.357,193.960 319.308 C 192.898 316.832,191.600 312.972,191.600 312.291 C 191.600 311.122,188.384 305.250,186.402 302.800 C 184.254 300.146,182.273 296.331,181.001 292.400 C 179.932 289.096,178.762 286.971,175.824 283.000 C 172.781 278.887,171.452 276.284,169.462 270.542 C 167.699 265.454,166.619 263.328,164.001 259.800 C 160.786 255.465,160.180 254.232,158.066 247.723 C 156.382 242.537,155.701 241.052,153.390 237.527 C 150.244 232.726,149.741 231.630,147.371 224.439 C 145.407 218.480,144.617 216.939,140.992 212.000 C 138.162 208.145,137.076 206.141,135.794 202.408 C 134.365 198.250,132.476 194.641,130.539 192.372 C 128.339 189.794,125.788 184.822,124.955 181.485 C 124.069 177.935,121.588 173.010,119.209 170.074 C 117.127 167.506,114.860 162.872,113.204 157.800 C 111.990 154.081,111.173 152.516,108.095 148.004 C 105.046 143.535,104.144 141.601,102.188 135.335 C 100.176 128.890,99.319 127.117,96.324 123.199 C 93.254 119.185,92.662 118.104,91.377 114.167 C 89.854 109.503,88.285 106.412,86.014 103.600 C 83.628 100.646,81.338 96.305,80.001 92.200 C 78.882 88.769,77.190 85.325,75.824 83.702 C 75.261 83.032,74.800 82.340,74.800 82.164 C 74.800 81.988,74.349 81.373,73.798 80.798 L 72.795 79.751 74.070 78.093 C 75.619 76.078,78.925 74.245,82.881 73.209 C 86.966 72.139,340.184 71.951,345.517 73.015 " stroke="none" fill="#7294ea" fill-rule="evenodd"></path></g></svg>