<?xml version="1.0" standalone="no"?>
<!DOCTYPE svg PUBLIC "-//W3C//DTD SVG 20010904//EN"
 "http://www.w3.org/TR/2001/REC-SVG-20010904/DTD/svg10.dtd">
<svg version="1.0" xmlns="http://www.w3.org/2000/svg"
 width="128.000000pt" height="139.000000pt" viewBox="0 0 128.000000 139.000000"
 preserveAspectRatio="xMidYMid meet">

<g transform="translate(0.000000,139.000000) scale(0.100000,-0.100000)"
fill="#000000" stroke="none">
<path d="M20 1268 c0 -10 256 -528 300 -608 4 -8 29 -58 55 -110 25 -52 57
-115 70 -140 13 -25 45 -89 72 -143 74 -152 80 -162 97 -176 37 -31 55 -6 169
224 24 50 55 112 68 138 13 27 30 60 37 75 7 15 17 34 22 42 5 8 21 40 35 70
15 30 31 62 36 70 5 8 14 26 19 40 6 14 15 32 20 40 6 8 13 22 16 30 3 8 10
22 15 30 5 8 14 26 19 40 6 14 14 32 20 40 5 8 16 29 24 46 8 17 19 35 25 38
6 4 11 17 11 30 0 12 4 26 9 32 17 16 91 168 91 187 0 16 -36 17 -615 17 -485
0 -615 -3 -615 -12z m1104 -108 c24 -9 35 -34 18 -42 -4 -1 -76 -142 -161
-313 -84 -170 -157 -317 -162 -325 -4 -8 -31 -61 -58 -116 -60 -122 -93 -141
-115 -68 -3 11 -26 58 -50 105 -24 46 -63 122 -86 169 -23 47 -54 110 -70 140
-15 30 -49 98 -75 150 -25 52 -50 103 -55 112 -88 161 -93 178 -60 191 27 10
847 8 874 -3z"/>
</g>
</svg>
